<svg width="180" height="41" viewBox="0 0 180 41" fill="none" xmlns="http://www.w3.org/2000/svg">
<path d="M33.544 6.016V6.976C32.84 7.232 32.088 7.792 31.288 8.656C30.52 9.52 29.8 10.864 29.128 12.688L19 40.096C18.744 40.064 18.472 40.048 18.184 40.048C17.896 40.048 17.608 40.048 17.32 40.048C17.064 40.048 16.792 40.048 16.504 40.048C16.216 40.048 15.944 40.064 15.688 40.096L3.448 10.048C3 8.896 2.504 8.112 1.96 7.696C1.416 7.248 0.904 7.008 0.424 6.976V6.016C1.384 6.048 2.504 6.08 3.784 6.112C5.096 6.144 6.408 6.16 7.72 6.16C9.192 6.16 10.568 6.144 11.848 6.112C13.16 6.08 14.216 6.048 15.016 6.016V6.976C13.992 7.008 13.192 7.136 12.616 7.36C12.04 7.552 11.72 7.936 11.656 8.512C11.592 9.056 11.784 9.888 12.232 11.008L20.968 33.232L19.96 34.432L26.584 16.576C27.448 14.176 27.896 12.288 27.928 10.912C27.96 9.536 27.624 8.544 26.92 7.936C26.216 7.328 25.208 7.008 23.896 6.976V6.016C24.984 6.048 26.008 6.08 26.968 6.112C27.928 6.144 28.904 6.16 29.896 6.16C30.6 6.16 31.256 6.144 31.864 6.112C32.504 6.08 33.064 6.048 33.544 6.016ZM39.0483 2.8C40.3923 2.8 41.4483 3.136 42.2163 3.808C43.0163 4.448 43.4163 5.344 43.4163 6.496C43.4163 7.648 43.0163 8.56 42.2163 9.232C41.4483 9.872 40.3923 10.192 39.0483 10.192C37.7043 10.192 36.6323 9.872 35.8323 9.232C35.0643 8.56 34.6803 7.648 34.6803 6.496C34.6803 5.344 35.0643 4.448 35.8323 3.808C36.6323 3.136 37.7043 2.8 39.0483 2.8ZM42.7923 14.656V35.536C42.7923 36.88 43.0163 37.792 43.4643 38.272C43.9443 38.752 44.7443 38.992 45.8643 38.992V40C45.2883 39.968 44.3923 39.936 43.1763 39.904C41.9603 39.84 40.7283 39.808 39.4803 39.808C38.2323 39.808 36.9683 39.84 35.6883 39.904C34.4083 39.936 33.4483 39.968 32.8083 40V38.992C33.9283 38.992 34.7123 38.752 35.1603 38.272C35.6403 37.792 35.8803 36.88 35.8803 35.536V20.416C35.8803 18.976 35.6563 17.92 35.2083 17.248C34.7923 16.544 33.9923 16.192 32.8083 16.192V15.184C33.8323 15.28 34.8243 15.328 35.7843 15.328C37.1283 15.328 38.3763 15.28 39.5283 15.184C40.7123 15.056 41.8003 14.88 42.7923 14.656ZM65.8049 14.512C67.1489 14.512 68.2369 14.688 69.0689 15.04C69.9329 15.36 70.6049 15.808 71.0849 16.384C71.5969 16.992 71.9649 17.776 72.1889 18.736C72.4449 19.696 72.5729 20.992 72.5729 22.624V35.536C72.5729 36.88 72.7969 37.792 73.2449 38.272C73.7249 38.752 74.5249 38.992 75.6449 38.992V40C75.0369 39.968 74.1249 39.936 72.9089 39.904C71.6929 39.84 70.4929 39.808 69.3089 39.808C68.0929 39.808 66.8929 39.84 65.7089 39.904C64.5569 39.936 63.6769 39.968 63.0689 40V38.992C64.0289 38.992 64.7009 38.752 65.0849 38.272C65.4689 37.792 65.6609 36.88 65.6609 35.536V20.608C65.6609 19.808 65.5809 19.12 65.4209 18.544C65.2609 17.936 64.9729 17.472 64.5569 17.152C64.1409 16.8 63.5169 16.624 62.6849 16.624C61.8209 16.624 61.0209 16.864 60.2849 17.344C59.5809 17.824 59.0049 18.496 58.5569 19.36C58.1409 20.192 57.9329 21.136 57.9329 22.192V35.536C57.9329 36.88 58.1249 37.792 58.5089 38.272C58.9249 38.752 59.5969 38.992 60.5249 38.992V40C59.9489 39.968 59.1009 39.936 57.9809 39.904C56.8929 39.84 55.7569 39.808 54.5729 39.808C53.3569 39.808 52.1089 39.84 50.8289 39.904C49.5489 39.936 48.5889 39.968 47.9489 40V38.992C49.0689 38.992 49.8529 38.752 50.3009 38.272C50.7809 37.792 51.0209 36.88 51.0209 35.536V20.416C51.0209 18.976 50.7969 17.92 50.3489 17.248C49.9329 16.544 49.1329 16.192 47.9489 16.192V15.184C48.9729 15.28 49.9649 15.328 50.9249 15.328C52.2689 15.328 53.5169 15.28 54.6689 15.184C55.8529 15.056 56.9409 14.88 57.9329 14.656V18.976C58.7329 17.344 59.8209 16.192 61.1969 15.52C62.5729 14.848 64.1089 14.512 65.8049 14.512ZM87.4173 14.656V35.536C87.4173 36.88 87.6413 37.792 88.0893 38.272C88.5693 38.752 89.3693 38.992 90.4893 38.992V40C89.9133 39.968 89.0173 39.936 87.8013 39.904C86.5853 39.84 85.3533 39.808 84.1053 39.808C82.8573 39.808 81.5933 39.84 80.3133 39.904C79.0333 39.936 78.0733 39.968 77.4333 40V38.992C78.5533 38.992 79.3373 38.752 79.7853 38.272C80.2653 37.792 80.5053 36.88 80.5053 35.536V20.416C80.5053 18.976 80.2813 17.92 79.8333 17.248C79.4173 16.544 78.6173 16.192 77.4333 16.192V15.184C78.4573 15.28 79.4493 15.328 80.4093 15.328C81.7533 15.328 83.0013 15.28 84.1533 15.184C85.3373 15.056 86.4253 14.88 87.4173 14.656ZM89.0493 0.783998C89.5933 1.2 89.8813 1.776 89.9133 2.512C89.9453 3.248 89.7053 3.936 89.1933 4.576C88.6813 5.216 88.0573 5.792 87.3213 6.304C86.5853 6.816 85.7053 7.44 84.6813 8.176C83.6893 8.912 82.4893 9.936 81.0813 11.248L80.5533 10.816C81.5133 9.088 82.2173 7.648 82.6653 6.496C83.1133 5.312 83.4973 4.304 83.8173 3.472C84.1373 2.64 84.5693 1.92 85.1133 1.312C85.5933 0.671998 86.2173 0.303998 86.9853 0.207997C87.7853 0.0799971 88.4733 0.271997 89.0493 0.783998ZM105.054 14.512C106.302 14.512 107.438 14.656 108.462 14.944C109.518 15.2 110.382 15.536 111.054 15.952C111.886 16.464 112.526 17.104 112.974 17.872C113.454 18.608 113.694 19.472 113.694 20.464C113.694 21.584 113.342 22.512 112.638 23.248C111.934 23.952 111.022 24.304 109.902 24.304C108.782 24.304 107.886 23.984 107.214 23.344C106.542 22.704 106.206 21.84 106.206 20.752C106.206 19.728 106.526 18.88 107.166 18.208C107.806 17.504 108.542 17.04 109.374 16.816C109.118 16.496 108.734 16.224 108.222 16C107.71 15.776 107.134 15.664 106.494 15.664C105.502 15.664 104.622 15.952 103.854 16.528C103.118 17.104 102.494 17.904 101.982 18.928C101.47 19.952 101.07 21.152 100.782 22.528C100.526 23.904 100.398 25.408 100.398 27.04C100.398 29.504 100.702 31.44 101.31 32.848C101.95 34.256 102.75 35.248 103.71 35.824C104.702 36.4 105.726 36.688 106.782 36.688C107.39 36.688 108.046 36.592 108.75 36.4C109.486 36.208 110.222 35.824 110.958 35.248C111.726 34.672 112.43 33.856 113.07 32.8L113.886 33.088C113.534 34.272 112.958 35.456 112.158 36.64C111.358 37.824 110.318 38.8 109.038 39.568C107.758 40.304 106.19 40.672 104.334 40.672C102.254 40.672 100.366 40.224 98.6699 39.328C97.0059 38.4 95.6619 36.992 94.6379 35.104C93.6459 33.184 93.1499 30.72 93.1499 27.712C93.1499 24.832 93.6619 22.416 94.6859 20.464C95.7419 18.48 97.1659 16.992 98.9579 16C100.75 15.008 102.782 14.512 105.054 14.512ZM122.626 2.8C123.97 2.8 125.026 3.136 125.794 3.808C126.594 4.448 126.994 5.344 126.994 6.496C126.994 7.648 126.594 8.56 125.794 9.232C125.026 9.872 123.97 10.192 122.626 10.192C121.282 10.192 120.21 9.872 119.41 9.232C118.642 8.56 118.258 7.648 118.258 6.496C118.258 5.344 118.642 4.448 119.41 3.808C120.21 3.136 121.282 2.8 122.626 2.8ZM126.37 14.656V35.536C126.37 36.88 126.594 37.792 127.042 38.272C127.522 38.752 128.322 38.992 129.442 38.992V40C128.866 39.968 127.97 39.936 126.754 39.904C125.538 39.84 124.306 39.808 123.058 39.808C121.81 39.808 120.546 39.84 119.266 39.904C117.986 39.936 117.026 39.968 116.386 40V38.992C117.506 38.992 118.29 38.752 118.738 38.272C119.218 37.792 119.458 36.88 119.458 35.536V20.416C119.458 18.976 119.234 17.92 118.786 17.248C118.37 16.544 117.57 16.192 116.386 16.192V15.184C117.41 15.28 118.402 15.328 119.362 15.328C120.706 15.328 121.954 15.28 123.106 15.184C124.29 15.056 125.378 14.88 126.37 14.656ZM155.431 14.656V34.768C155.431 36.208 155.655 37.28 156.103 37.984C156.551 38.656 157.351 38.992 158.503 38.992V40C157.511 39.904 156.519 39.856 155.527 39.856C154.183 39.856 152.935 39.904 151.783 40C150.631 40.096 149.543 40.272 148.519 40.528V36.208C147.751 37.808 146.679 38.96 145.303 39.664C143.959 40.336 142.455 40.672 140.791 40.672C139.447 40.672 138.359 40.496 137.527 40.144C136.695 39.792 136.039 39.344 135.559 38.8C135.015 38.192 134.631 37.392 134.407 36.4C134.183 35.408 134.071 34.128 134.071 32.56V20.416C134.071 18.976 133.847 17.92 133.399 17.248C132.983 16.544 132.183 16.192 130.999 16.192V15.184C132.023 15.28 133.015 15.328 133.975 15.328C135.319 15.328 136.567 15.28 137.719 15.184C138.903 15.056 139.991 14.88 140.983 14.656V34.528C140.983 35.328 141.047 36.032 141.175 36.64C141.335 37.248 141.623 37.728 142.039 38.08C142.455 38.4 143.063 38.56 143.863 38.56C144.727 38.56 145.495 38.32 146.167 37.84C146.871 37.36 147.431 36.704 147.847 35.872C148.295 35.008 148.519 34.048 148.519 32.992V20.416C148.519 18.976 148.295 17.92 147.847 17.248C147.431 16.544 146.631 16.192 145.447 16.192V15.184C146.471 15.28 147.463 15.328 148.423 15.328C149.767 15.328 151.015 15.28 152.167 15.184C153.351 15.056 154.439 14.88 155.431 14.656ZM170.14 14.512C171.484 14.512 172.652 14.688 173.644 15.04C174.668 15.36 175.404 15.68 175.852 16C176.94 16.736 177.612 16.256 177.868 14.56H178.876C178.812 15.456 178.764 16.56 178.732 17.872C178.7 19.152 178.684 20.864 178.684 23.008H177.676C177.516 21.824 177.212 20.656 176.764 19.504C176.316 18.352 175.66 17.408 174.796 16.672C173.964 15.936 172.876 15.568 171.532 15.568C170.604 15.568 169.82 15.84 169.18 16.384C168.54 16.896 168.22 17.648 168.22 18.64C168.22 19.6 168.508 20.448 169.084 21.184C169.66 21.888 170.396 22.576 171.292 23.248C172.22 23.888 173.18 24.576 174.172 25.312C175.228 26.112 176.188 26.912 177.052 27.712C177.916 28.48 178.604 29.328 179.116 30.256C179.628 31.184 179.884 32.288 179.884 33.568C179.884 35.008 179.468 36.272 178.636 37.36C177.804 38.416 176.7 39.232 175.324 39.808C173.98 40.384 172.476 40.672 170.812 40.672C169.852 40.672 168.988 40.576 168.22 40.384C167.484 40.192 166.844 39.952 166.3 39.664C165.884 39.472 165.484 39.296 165.1 39.136C164.748 38.944 164.412 38.784 164.092 38.656C163.772 38.56 163.484 38.672 163.228 38.992C163.004 39.312 162.828 39.76 162.7 40.336H161.692C161.756 39.312 161.804 38.064 161.836 36.592C161.868 35.12 161.884 33.168 161.884 30.736H162.892C163.084 32.464 163.436 34 163.948 35.344C164.46 36.656 165.148 37.696 166.012 38.464C166.908 39.2 168.028 39.568 169.372 39.568C169.916 39.568 170.444 39.456 170.956 39.232C171.468 39.008 171.884 38.64 172.204 38.128C172.556 37.616 172.732 36.96 172.732 36.16C172.732 34.752 172.268 33.584 171.34 32.656C170.444 31.728 169.292 30.72 167.884 29.632C166.86 28.8 165.884 27.984 164.956 27.184C164.06 26.352 163.324 25.456 162.748 24.496C162.172 23.504 161.884 22.384 161.884 21.136C161.884 19.696 162.268 18.48 163.036 17.488C163.804 16.496 164.812 15.76 166.06 15.28C167.34 14.768 168.7 14.512 170.14 14.512Z" fill="#141414"/>
</svg>
